<svg width="611" height="616" viewBox="0 0 611 616" fill="none" xmlns="http://www.w3.org/2000/svg">
<path d="M204.5 248.54C184.396 274.226 187.57 306.168 204.469 327.847C233.449 365.021 291.203 351.54 338.338 351.54H465.5C487.31 351.066 501.692 347.742 512.471 339.987C535.674 323.293 545.334 289.346 533.953 263.124C522.393 236.492 501.069 213.503 499.584 184.507C499.033 173.729 499.444 161.096 500.5 145.04C497.523 89.4664 485.926 63.7539 446 28.0396C417.166 8.48599 395.137 1.03655 370.807 0.952862C333.222 0.82358 295.414 15.3294 268.648 41.7159C260.491 49.7573 254.47 58.0051 249.472 66.9978C234.818 93.3627 232 124.457 232 154.62C232 178.457 230.602 202.977 220.086 224.368C216.222 232.228 211.386 239.742 204.5 248.54Z" fill="#C59191"/>
<path d="M446.5 27.54C438.9 51.14 404.333 82.3734 388 95.04C407 136.54 452 151.54 500.5 144.54C498.431 85.0672 482.369 62.525 446.5 27.54Z" fill="#B98080"/>
<path d="M140.5 463.061V598.04H590V464.447C590 429.305 569.092 397.533 536.818 383.628L431 338.04H299L192.383 384.118C160.89 397.728 140.5 428.753 140.5 463.061Z" fill="#8795DE"/>
<path d="M468 598.04H263C263 574.744 266.985 355.133 259.978 354.904L299 338.04C311.67 324.739 315.399 316.083 315 298.04C266.954 271.049 267.905 235.19 269.217 185.677C269.549 173.192 269.903 159.838 269.5 145.54C322.814 137.896 347.513 124.798 387.5 94.54C406.255 128.934 423.766 138.036 461 145.54C460.271 160.951 460.366 175.256 460.454 188.519C460.79 238.939 461.025 274.288 415.5 298.04C414.187 315.056 417.258 323.887 431 338.04L470.252 354.951C462.878 355.619 468 575.264 468 598.04Z" fill="#FFCEBF"/>
<path d="M466.5 394.54C384.621 415.881 341.136 414.563 263.5 394.54V603.04H467.5L466.5 394.54Z" fill="white"/>
<path d="M407 242.04C429.983 234.489 441.942 224.611 460.5 190.04V228.04C444.019 245.083 432.784 252.644 411.411 259.646C408.501 260.599 405.736 261.96 403.258 263.761C398.541 267.192 392.858 269.04 387.025 269.04H369.754C366.334 269.04 362.995 267.993 360.187 266.039C355.684 262.907 353 257.766 353 252.281C353 247.957 354.67 243.797 357.662 240.675L358.577 239.721C362.361 235.772 367.592 233.54 373.06 233.54H386.442C392.639 233.54 398.66 235.595 403.563 239.384L407 242.04Z" fill="#7A6D79"/>
<path d="M403.563 239.384L407 242.04C408.743 246.609 409.194 250.021 408.578 254.25C407.925 258.724 405.015 262.483 401.359 265.143C397.876 267.676 393.68 269.04 389.374 269.04H369.754C366.334 269.04 362.995 267.993 360.187 266.039C355.684 262.907 353 257.766 353 252.281C353 247.957 354.67 243.797 357.662 240.675L358.577 239.721C362.361 235.772 367.592 233.54 373.06 233.54H386.442C392.639 233.54 398.66 235.595 403.563 239.384Z" fill="#685E68"/>
<path d="M429 336.04C356.2 356.04 320.667 333.707 312 320.04C315.2 313.24 315.667 302.207 315.5 297.54C359.9 317.94 400.333 306.04 415 297.54C411.8 312.34 423 329.373 429 336.04Z" fill="#FFB09E"/>
<path d="M204.784 454.89L222.5 597.04H518L532.39 454.448C533.519 443.257 524.734 433.54 513.486 433.54H223.638C212.212 433.54 203.371 443.552 204.784 454.89Z" fill="#EFEDEF"/>
<path d="M478 433.54C512 438.04 489.833 542.373 481 598.04H518L532.721 455.596C533.94 443.8 524.685 433.54 512.827 433.54H478Z" fill="#E5E1E5"/>
<circle cx="368.5" cy="516.04" r="25.5" fill="#C9BFC8"/>
<rect y="596.54" width="611" height="19" rx="9.5" fill="#C9BFC8"/>
<path d="M189 59.5405C205.457 106.009 196.28 134.098 165.603 170.421C163.882 172.459 164.015 175.491 165.943 177.336L181.746 192.467C183.126 193.788 182.041 196.13 180.138 195.962C119.08 190.593 73.1613 206.309 31 167.54C-3.49989 127.54 -5.50008 74.04 27.4999 35.0401C60.4999 -10.4597 148 -19.9597 189 59.5405Z" fill="#7ACAA6"/>
<path d="M136 164.54C183.5 116.54 164 10.0396 71.5 5.03963C90.3258 -1.35045 101.418 -1.45278 122 3.53963C142.175 8.4797 153.179 13.6154 171.5 32.54C183.672 48.1716 188.084 56.2955 193 70.0396C202.071 100.693 195.384 133.848 175.141 158.589L165.306 170.61C163.737 172.528 163.957 175.341 165.805 176.993L182.093 191.548C183.462 192.772 182.597 195.04 180.76 195.04H148C140.043 184.356 135.037 178.568 136 164.54Z" fill="#57BE92"/>
<circle cx="63" cy="98.54" r="10" fill="white"/>
<circle cx="100" cy="98.54" r="10" fill="white"/>
<circle cx="137" cy="98.54" r="10" fill="white"/>
</svg>
