<svg width="356" height="457" viewBox="0 0 356 457" fill="none" xmlns="http://www.w3.org/2000/svg">
<path d="M6 14C6 10.6863 8.68629 8 12 8H338C341.314 8 344 10.6863 344 14V372.04C344 373.616 343.38 375.129 342.273 376.252L277.262 442.212C276.135 443.356 274.596 444 272.989 444H12C8.6863 444 6 441.314 6 438V14Z" fill="#F6C5CA"/>
<path d="M264.5 370.5C264.5 367.186 267.186 364.5 270.5 364.5L344 364.5L344 372.094C344 373.638 343.404 375.123 342.337 376.24L338.007 380.77L277.024 442.47C276.677 442.821 276.275 443.112 275.833 443.333C274.957 443.772 273.99 444 273.009 444L264.5 444L264.5 370.5Z" fill="#F69191"/>
<path d="M356 67H92V457H283.751C284.55 457 285.317 456.681 285.88 456.114L355.129 386.377C355.687 385.815 356 385.056 356 384.264V67Z" fill="#F6B1B5"/>
<path d="M0 6C0 2.68629 2.68629 0 6 0H332C335.314 0 338 2.68629 338 6V364.04C338 365.616 337.38 367.129 336.273 368.252L271.262 434.212C270.135 435.356 268.596 436 266.989 436H6C2.6863 436 0 433.314 0 430V6Z" fill="#F6E0E0"/>
<rect x="68" y="297" width="202" height="18" rx="9" fill="#F69191"/>
<rect x="68" y="333" width="144" height="18" rx="9" fill="#F69191"/>
<path d="M306 0H332C335.314 0 338 2.68629 338 6V358H306V0Z" fill="#F6C5CA"/>
<path d="M258.5 362.5C258.5 359.186 261.186 356.5 264.5 356.5L338 356.5L338 364.094C338 365.638 337.404 367.123 336.337 368.24L332.007 372.77L271.024 434.47C270.677 434.821 270.275 435.112 269.833 435.333C268.957 435.772 267.99 436 267.009 436L258.5 436L258.5 362.5Z" fill="#F69191"/>
<circle cx="163.5" cy="161.5" r="111.5" fill="#FFD07F"/>
<path d="M148.5 272C202.986 264.673 245 217.993 245 161.5C245 105.007 202.986 58.3268 148.5 51.0003C153.406 50.3406 158.413 50 163.5 50C225.08 50 275 99.9203 275 161.5C275 223.08 225.08 273 163.5 273C158.413 273 153.406 272.659 148.5 272Z" fill="#FFAE7F"/>
<path d="M202.355 121.701L150.971 172.215C149.796 173.369 147.911 173.361 146.746 172.196L129.226 154.676C125.688 151.138 121.413 147.964 116.411 147.859C107.943 147.682 103.113 153.345 102.171 160.139C101.427 165.504 104.853 170.303 108.684 174.134L140.391 205.841C145.067 210.517 152.644 210.529 157.335 205.868L220.61 142.993C225.332 138.301 229.362 132.139 227.765 125.676C226.31 119.787 222.217 115.224 215.41 115.008C210.341 114.847 205.972 118.145 202.355 121.701Z" fill="#F6B77F"/>
</svg>
