<svg width="556" height="601" viewBox="0 0 556 601" fill="none" xmlns="http://www.w3.org/2000/svg">
<rect x="191.68" y="75.084" width="216.394" height="431.078" rx="20" transform="rotate(5.71647 191.68 75.084)" fill="#FFFCFF"/>
<path opacity="0.5" d="M189.688 94.9845C190.788 83.9938 200.59 75.9759 211.581 77.0761L238.551 79.7759L195.613 508.71L168.643 506.011C157.652 504.91 149.634 495.109 150.734 484.118L189.688 94.9845Z" fill="#FFA9D7"/>
<path d="M189.353 94.5662C190.646 83.7468 200.361 75.9532 211.204 77.0386L238.551 79.7762L226.023 203.133L188.88 124.132C187.285 120.741 186.676 116.97 187.12 113.249L189.353 94.5662Z" fill="#FFA9D7"/>
<rect x="246.409" y="237.74" width="125.948" height="8.27688" rx="4" transform="rotate(-83.18 246.409 237.74)" fill="#FFD0CC"/>
<rect x="272.22" y="292.759" width="177.614" height="8.27688" rx="4" transform="rotate(-83.18 272.22 292.759)" fill="#FFD0CC"/>
<rect x="304.873" y="287.32" width="167.022" height="8.27688" rx="4" transform="rotate(-83.18 304.873 287.32)" fill="#FFD0CC"/>
<rect x="328.284" y="369.56" width="246.215" height="8.27688" rx="4" transform="rotate(-83.18 328.284 369.56)" fill="#FFD0CC"/>
<rect x="295.435" y="357.647" width="55.9365" height="8.27688" rx="4" transform="rotate(-83.18 295.435 357.647)" fill="#FFD0CC"/>
<rect x="195.39" y="227.521" width="117.378" height="8.27688" rx="4" transform="rotate(-83.18 195.39 227.521)" fill="white"/>
<rect x="19.3311" y="188.168" width="272.9" height="356.885" rx="18" fill="#ADB6F5"/>
<path d="M19.3311 221.045C47.6918 227.427 111.431 246.672 152.062 275.734L175.061 240.16C180.482 230.748 198.136 209 229.14 188.168H274.231C284.173 188.168 292.231 196.227 292.231 206.168V527.053C292.231 536.994 284.173 545.053 274.231 545.053H37.3311C27.3899 545.053 19.3311 536.994 19.3311 527.053V221.045Z" fill="#7CA6F3"/>
<path fill-rule="evenodd" clip-rule="evenodd" d="M19.3311 462.688V527.053C19.3311 536.994 27.3899 545.053 37.3311 545.053H274.231C284.173 545.053 292.231 536.994 292.231 527.053V391.034C283.84 382.627 267.032 372.368 237.726 367.603C186.102 359.208 168.475 326.891 169.734 318.497C171.748 293.986 159.101 282.262 152.526 279.464L111.269 291.594C68.1688 291.272 57.3847 348.372 49.2003 391.706C47.5282 400.559 45.9644 408.839 44.2559 415.937C38.7279 438.9 28.1425 454.058 19.3311 462.688Z" fill="#4F88F1"/>
<path opacity="0.5" d="M292.231 225.061V527.053C292.231 536.994 284.173 545.053 274.231 545.053H69.7404C67.0017 521.114 86.6269 498.977 98.3151 489.945L144.801 481.382C168.778 474.042 173.141 455.081 172.326 446.517C185.171 397.585 192.511 386.575 220.035 382.905C237.451 380.583 241.153 352.059 244.777 324.138C246.881 307.932 248.958 291.928 253.676 281.37C270.785 247.508 284.173 231.496 292.231 225.061Z" fill="#2154DC"/>
<path opacity="0.5" d="M265.193 417.779L266.998 195.25H271.41C277.485 195.25 282.41 200.175 282.41 206.25V533.342H42.1064C36.0313 533.342 31.1064 528.418 31.1064 522.342V514.296H164.048C183.934 514.296 204.254 512.38 221.979 503.364C235.576 496.447 245.292 487.909 253.065 474.967C263.253 458.004 265.032 437.565 265.193 417.779Z" fill="#1955DB"/>
<path fill-rule="evenodd" clip-rule="evenodd" d="M150.722 431.161C151.994 431.24 153.297 431.211 154.628 431.073C155.219 431.011 155.804 430.935 156.384 430.846C204.634 427.133 234.664 399.56 234.664 353.218C234.664 310.099 202.735 274.926 157.028 274.926C156.961 274.926 156.894 274.926 156.827 274.926C156.787 274.926 156.747 274.926 156.706 274.926C156.599 274.926 156.492 274.927 156.384 274.929C117.019 275.348 78.0796 314.078 78.0796 355.405C75.9257 399.349 103.964 432.569 150.722 431.161ZM87.9658 360.727C88.0712 375.029 91.8493 387.457 98.4189 397.198V396.548H121.399C118.687 386.193 117.225 374.018 117.18 360.727H87.9658ZM127.18 360.727C127.229 374.58 128.904 386.77 131.775 396.548H150.63V360.727H127.18ZM150.63 348.888H127.409C127.978 338.115 129.919 327.736 132.777 318.535H150.63V348.888ZM161.998 360.727V396.548H179.12C182.55 387.288 184.803 375.354 185.376 360.727H161.998ZM185.462 348.888H161.998V318.535H181.458C183.743 327.489 185.167 337.776 185.462 348.888ZM195.383 360.727C194.869 374.588 192.914 386.581 189.699 396.548H210.632C218.274 387.376 223.14 375.491 224.361 360.727H195.383ZM224.542 348.888H195.466C195.194 338.045 193.906 327.777 191.751 318.535H215.919C220.907 327.516 223.918 337.832 224.542 348.888ZM117.396 348.888H88.4566C89.6753 338.281 93.7966 327.848 100.047 318.535H122.346C119.678 327.935 117.916 338.26 117.396 348.888ZM108.019 407.916H125.183C127.011 412.301 129.132 416.166 131.525 419.423C122.2 417.268 114.347 413.255 108.019 407.916ZM150.63 407.916H136.184C140.72 416.857 145.774 420.466 150.63 421.095V407.916ZM161.998 418.699V407.916H173.506C170.118 413.072 166.24 416.578 161.998 418.699ZM179.775 416.346C181.695 413.838 183.456 411.026 185.05 407.916H197.788C192.555 411.345 186.544 414.182 179.775 416.346ZM126.186 307.167H109.278C109.357 307.086 109.437 307.005 109.516 306.924C109.561 306.878 109.606 306.832 109.651 306.787C109.705 306.732 109.759 306.677 109.813 306.622C117.427 298.938 126.333 292.956 135.66 289.237C132.123 294.222 128.906 300.308 126.186 307.167ZM161.998 307.167H177.823C177.144 305.446 176.427 303.805 175.676 302.25C171.271 293.125 166.441 288.25 161.998 286.172V307.167ZM150.63 287.588C150.109 287.993 149.564 288.456 148.996 288.984C145.511 292.222 141.85 297.281 138.511 304.022C138.006 305.042 137.513 306.091 137.033 307.167H150.63V287.588ZM188.485 307.167H207.927C200.364 298.539 190.52 291.953 178.98 288.262C182.716 293.378 185.92 299.787 188.485 307.167Z" fill="#FFFAFE"/>
<rect x="66.8574" y="474.082" width="179.748" height="20.5967" rx="4" fill="white"/>
<rect x="73.3135" y="239.431" width="167.487" height="11.126" rx="4" fill="white"/>
<rect x="102.493" y="211.875" width="108.897" height="11.126" rx="4" fill="white"/>
<path d="M253.215 360.263C253.215 354.304 258.046 349.473 264.006 349.473H444.462C450.422 349.473 455.253 354.304 455.253 360.263C455.253 366.223 450.422 371.054 444.462 371.054H264.006C258.046 371.054 253.215 366.223 253.215 360.263Z" fill="#402926"/>
<path d="M238.617 343.509C238.617 329.149 250.257 317.509 264.617 317.509H443.704C458.063 317.509 469.704 329.149 469.704 343.509V352.131C469.704 356.549 466.122 360.131 461.704 360.131H246.617C242.198 360.131 238.617 356.549 238.617 352.131V343.509Z" fill="#FFFA19"/>
<path d="M458.143 351.186C464.869 348.944 463.347 334.771 461.746 327.965C468.915 334.366 468.588 344.978 466.668 352.591C465.88 355.716 462.955 357.648 459.733 357.66C386.854 357.945 248.959 358.703 245.833 358.078C242.631 357.438 242.89 355.456 243.157 353.988C312.016 353.988 451.417 353.427 458.143 351.186Z" fill="#E6CB27"/>
<path d="M328.834 271.972C335.595 284.616 332.639 316.482 328.834 322.605H378.97L378.904 322.148C378.711 320.822 378.524 319.534 378.346 318.279C373.887 286.914 389.385 257.013 399.936 227.142C407.351 206.151 411.343 188.059 402.301 170.209C389.785 136.374 346.13 127.333 316.441 153.845C310.718 158.955 306.948 165.895 304.985 173.312C299.763 193.045 300.067 218.175 328.834 271.972Z" fill="#FFD783"/>
<path d="M366.382 278.315C361.115 292.36 361.262 312.45 361.993 320.74H370.484C369.797 305.363 369.637 299.283 373.697 283.801C386.1 251.116 396.209 232.62 400.506 198.796C401.661 189.7 401.705 180.258 398.338 171.729C390.648 152.25 374.256 145.919 355.41 145.919C382.092 152.101 389.609 166.691 392.715 185.053C396.978 210.257 372.965 260.76 366.382 278.315Z" fill="#FFB23F"/>
<g opacity="0.5">
<path d="M332.395 285.863C338.701 279.222 345.02 267.844 341.399 253.362C335.396 229.348 330.805 207.452 341.399 200.742C343.233 199.58 345.088 198.514 346.923 197.459C355.694 192.418 364.029 187.627 367.533 173.901C369.842 164.86 372.499 152.031 374.481 141.902C356.476 134.916 334.012 138.154 316.441 153.845C310.718 158.955 306.948 165.895 304.985 173.312C299.763 193.045 300.067 218.175 328.834 271.972C330.697 275.456 331.822 280.4 332.395 285.863Z" fill="#FFB23F"/>
<path d="M378.562 319.786C378.489 319.278 378.417 318.776 378.346 318.279C374.752 292.995 384.126 268.662 393.423 244.528C395.659 238.725 397.891 232.933 399.936 227.142C406.486 208.6 410.365 192.32 404.949 176.471C396.616 180.918 383.682 189.333 373.648 200.742C369.418 205.482 370.645 212.285 371.997 219.782C373.323 227.134 374.77 235.154 371.308 242.55C368.675 248.175 365.32 253.26 362.077 258.177C356.706 266.317 351.639 273.999 350.648 282.916C350.078 288.044 350.611 291.783 351.12 295.348C352.03 301.728 352.861 307.552 347.152 319.786H378.562Z" fill="#FFB23F"/>
</g>
<path opacity="0.5" d="M328.834 322.604C332.639 316.482 335.595 284.615 328.834 271.971C300.067 218.174 299.763 193.045 304.985 173.312C306.948 165.895 310.718 158.955 316.441 153.845C319.39 151.211 322.477 148.928 325.658 146.985C331.331 153.526 337.648 165.028 338.39 181.728C338.629 187.099 338.714 192.108 338.793 196.75C339.142 217.332 339.369 230.71 352.334 236.531C358.931 239.493 367.763 241.281 376.069 242.963C382.201 244.204 388.046 245.387 392.494 246.942C383.516 270.284 374.872 293.837 378.346 318.279C378.524 319.53 378.71 320.813 378.902 322.136L378.97 322.604H328.834Z" fill="#FFB23F"/>
</svg>
