<svg width="717" height="744" viewBox="0 0 717 744" fill="none" xmlns="http://www.w3.org/2000/svg">
<path d="M432 255.8V256.048C431.154 256.106 430.309 256.175 429.466 256.254C409.47 258.123 390.404 265.716 374.4 278.119C370.335 281.27 366.467 284.73 362.832 288.487C362.347 288.988 361.868 289.493 361.393 290.003C342.04 310.776 331.2 338.51 331.2 367.4C331.2 396.289 342.04 424.024 361.393 444.797C361.868 445.306 362.347 445.812 362.832 446.313C366.467 450.069 370.335 453.53 374.4 456.68C390.404 469.084 409.469 476.676 429.464 478.546C430.308 478.625 431.153 478.693 432 478.752V479H547.2V479.718C560.146 479.718 572.964 482.213 584.925 487.062C596.885 491.911 607.752 499.018 616.906 507.977C626.06 516.936 633.321 527.572 638.275 539.278C643.23 550.983 645.779 563.53 645.779 576.2C645.779 588.87 643.23 601.416 638.275 613.122C633.321 624.828 626.06 635.464 616.906 644.423C607.752 653.382 596.885 660.489 584.925 665.337C572.964 670.186 560.146 672.682 547.2 672.682V673.4H151.2V741.8H565.2V740.86C581.242 739.18 596.987 735.26 611.95 729.194C632.478 720.872 651.131 708.674 666.842 693.297C682.554 677.919 695.017 659.664 703.52 639.572C712.023 619.481 716.4 597.947 716.4 576.2C716.4 554.453 712.023 532.919 703.52 512.827C695.017 492.736 682.554 474.48 666.842 459.103C651.131 443.726 632.478 431.528 611.95 423.205C596.987 417.14 581.242 415.132 565.2 414.489V414.2H439.2V414.182C437.925 414.182 436.656 414.126 435.395 414.017C425.461 413.151 416.061 408.917 408.675 401.949C408.169 401.472 407.673 400.982 407.187 400.48C398.697 391.706 393.927 379.807 393.927 367.4C393.927 354.992 398.697 343.093 407.187 334.32C407.673 333.817 408.169 333.328 408.675 332.851C416.061 325.882 425.462 321.648 435.395 320.783C436.656 320.673 437.925 320.618 439.2 320.618V320.6H516.6V255.8H432Z" fill="#DCE1EB"/>
<path fill-rule="evenodd" clip-rule="evenodd" d="M516.657 0.200195V0.208208C548.453 0.573984 586.079 13.53 611.782 52.8848C632.286 84.2802 636.086 124.463 624.709 160.193C608.559 210.916 571.11 262.47 516.657 319.153V320.6L515.96 319.877L515.264 320.6V319.153C460.81 262.47 423.361 210.916 407.211 160.193C395.834 124.463 399.634 84.2802 420.139 52.8848C445.842 13.53 483.467 0.573984 515.264 0.208208V0.200195C515.495 0.200195 515.728 0.200861 515.96 0.202199C516.193 0.200861 516.425 0.200195 516.657 0.200195ZM516.657 193.833C562.049 193.833 598.846 157.036 598.846 111.644C598.846 66.2516 562.049 29.4541 516.657 29.4541C471.265 29.4541 434.467 66.2516 434.467 111.644C434.467 157.036 471.265 193.833 516.657 193.833Z" fill="#0E1C66"/>
<path fill-rule="evenodd" clip-rule="evenodd" d="M515.263 0.208008C483.467 0.573894 445.841 13.53 420.139 52.8846C399.634 84.28 395.834 124.463 407.211 160.193C423.361 210.915 460.81 262.47 515.263 319.152V193.821C470.514 193.077 434.467 156.57 434.467 111.643C434.467 66.7169 470.514 30.2095 515.263 29.4655V0.208008ZM515.264 319.204V320.6L515.96 319.877L516.657 320.6V319.204H515.264Z" fill="#0C2093"/>
<path fill-rule="evenodd" clip-rule="evenodd" d="M149.582 329.6V329.61C190.668 330.083 239.285 346.824 272.497 397.675C298.991 438.242 303.902 490.164 289.201 536.332C268.333 601.872 219.944 668.488 149.582 741.729V743.6L148.682 742.665L147.782 743.6V741.729C77.4211 668.488 29.0316 601.872 8.16354 536.332C-6.53675 490.164 -1.62652 438.242 24.8682 397.675C58.0799 346.824 106.697 330.083 147.782 329.61V329.6C148.082 329.6 148.382 329.6 148.682 329.602C148.983 329.6 149.283 329.6 149.582 329.6ZM149.583 579.8C208.235 579.8 255.783 532.252 255.783 473.6C255.783 414.947 208.235 367.4 149.583 367.4C90.9302 367.4 43.3828 414.947 43.3828 473.6C43.3828 532.252 90.9302 579.8 149.583 579.8Z" fill="#0E1C66"/>
<path fill-rule="evenodd" clip-rule="evenodd" d="M147.783 329.6C147.783 329.6 147.783 329.6 147.782 329.6V329.61C106.697 330.083 58.0799 346.824 24.8682 397.675C-1.62652 438.242 -6.53675 490.164 8.16354 536.332C29.0316 601.872 77.4211 668.488 147.782 741.729V743.6L148.682 742.665L149.582 743.6V741.8H147.783V579.785C89.9605 578.824 43.3828 531.651 43.3828 473.6C43.3828 415.548 89.9605 368.375 147.783 367.415V329.6Z" fill="#0C2093"/>
</svg>
