<svg width="494" height="456" viewBox="0 0 494 456" fill="none" xmlns="http://www.w3.org/2000/svg">
<circle cx="18.9414" cy="446.17" r="9.36719" fill="url(#paint0_radial_20_2)"/>
<circle cx="54.7803" cy="446.17" r="9.36719" fill="url(#paint1_radial_20_2)"/>
<circle cx="90.6191" cy="446.17" r="9.36719" fill="url(#paint2_radial_20_2)"/>
<rect x="47.0645" y="352.123" width="15.4326" height="82.6074" fill="#FBFCFF"/>
<rect x="100.172" y="433.638" width="6.33106" height="90.5986" rx="2" transform="rotate(90 100.172 433.638)" fill="#FBFCFF"/>
<path d="M40.6904 335.187H68.8701V352.45C68.8701 354.659 67.0793 356.45 64.8701 356.45H44.6904C42.4813 356.45 40.6904 354.659 40.6904 352.45V335.187Z" fill="#FBFCFF"/>
<rect x="0.505859" y="328.479" width="112.725" height="6.70703" rx="2" fill="#F3F5FF"/>
<path d="M111.931 307.187H12.6431C8.262 307.187 4.71045 310.738 4.71045 315.119V328.479H111.931V307.187Z" fill="#FF4E81"/>
<rect x="225.455" y="227.993" width="45.7814" height="61.9998" rx="4" transform="rotate(44.4774 225.455 227.993)" fill="#FAFCFF"/>
<rect x="243.182" y="263.418" width="28.4947" height="2.88611" rx="1.44305" transform="rotate(-136.07 243.182 263.418)" fill="#4B5699" fill-opacity="0.25"/>
<rect x="236.762" y="270.247" width="28.4947" height="2.88611" rx="1.44305" transform="rotate(-136.07 236.762 270.247)" fill="#4B5699" fill-opacity="0.25"/>
<rect x="229.328" y="277.496" width="28.4947" height="2.88611" rx="1.44305" transform="rotate(-136.07 229.328 277.496)" fill="#4B5699" fill-opacity="0.25"/>
<rect x="221.051" y="283.188" width="28.4947" height="2.88611" rx="1.44305" transform="rotate(-136.07 221.051 283.188)" fill="#4B5699" fill-opacity="0.25"/>
<rect x="214.238" y="291.246" width="28.4947" height="2.88611" rx="1.44305" transform="rotate(-136.07 214.238 291.246)" fill="#4B5699" fill-opacity="0.25"/>
<path d="M127.44 416.387L131.988 402.015C144.052 400.292 150.084 405.749 151.592 408.693C184.337 429.546 182.326 437.919 177.228 439.499L129.176 420.074C127.723 419.487 126.967 417.881 127.44 416.387Z" fill="#8020FF"/>
<path d="M127.776 415.397L179.821 437.19C179.384 438.541 178.31 439.127 177.276 439.535L128.388 419.761C127.083 418.252 127.083 416.947 127.776 415.397Z" fill="#D9D9D9"/>
<path d="M68.8701 281.609V261.074L108.6 257.727L141.696 267.865C154.557 271.805 166.523 278.226 176.916 286.765L178.377 287.966C189.444 297.058 192.721 312.518 187.596 325.892C175.008 358.746 169.727 387.151 151.541 408.387L130.071 402.094L141.701 327.319V303.466L104.059 298.609H85.8701C76.4813 298.609 68.8701 290.998 68.8701 281.609Z" fill="url(#paint3_linear_20_2)"/>
<path d="M63.9514 413.206L71.8518 400.367C83.9734 401.623 88.5004 408.381 89.2487 411.603C115.954 439.779 111.971 447.414 106.642 447.709L64.7407 417.203C63.4742 416.281 63.1304 414.54 63.9514 413.206Z" fill="#8020FF"/>
<path d="M64.5178 412.327L109.719 446.099C108.966 447.304 107.782 447.612 106.68 447.757L64.0527 416.708C63.1528 414.928 63.4694 413.662 64.5178 412.327Z" fill="#D9D9D9"/>
<path d="M27.6406 291.169V270.634L75.2966 272.919L119.946 283.392L135.92 296.517C147.541 306.066 150.68 322.608 143.084 335.59C121.67 372.19 109.048 389.183 90.3154 411.057L71.3274 399.134L97.3807 332.897L100.472 313.026L62.8297 308.169H44.6406C35.2518 308.169 27.6406 300.558 27.6406 291.169Z" fill="url(#paint4_linear_20_2)"/>
<path d="M143.736 221.985C143.279 215.595 138.6 185.845 136.318 171.77L122.052 179.473L113.492 212.855L117.607 233.784C119.089 241.322 124.965 247.226 132.496 248.744L193.666 261.073L205.079 250.802C209.073 250.802 214.779 248.519 209.929 246.237C205.079 243.954 202.796 246.807 191.384 248.519C182.253 249.889 155.814 231.401 143.736 221.985Z" fill="#FFC7C7"/>
<path d="M65.9313 108.504V134.44C85.2323 145.538 97.8984 141.878 101.819 138.661L96.692 127.503L101.437 126.891C109.416 125.861 115.39 119.067 115.39 111.022V75.0285L109.057 63.8701C93.4751 64.6744 61.166 69.8417 56.582 84.0761C51.9981 98.3105 60.9049 106.292 65.9313 108.504Z" fill="#FFC7C7"/>
<path d="M53.8041 69.7911C45.589 92.6516 58.4914 113.362 67.5375 120.691V108.636C63.8167 106.254 57.5985 99.8843 58.4915 93.4549C59.3845 87.0254 65.5609 92.1154 68.5375 95.4641V79.8369C93.0051 84.4804 106.564 75.0745 110.284 69.7911C110.284 75.1492 111.921 79.7627 112.74 81.3996C135.958 65.5046 120.777 58.703 110.284 57.2892C120.286 34.4289 103.885 43.7457 94.434 51.2617C94.2107 35.4113 64.0729 41.2156 53.8041 69.7911Z" fill="url(#paint5_linear_20_2)"/>
<path d="M26.0381 273.264L70.5977 275.74C82.5071 275.74 100.392 265.372 108.593 259.696C109.028 259.394 109.156 258.801 109.019 258.289C107.408 252.253 111.287 227.124 115.166 216.857C118.453 208.156 121.659 195.98 122.851 190.98L138.953 185.445C138.617 177.981 135.833 159.381 127.38 144.688C118.926 129.995 104.066 128.334 97.692 129.34C101.114 146.65 77.7542 137.441 65.6468 130.672L52.4742 135.69C41.4972 139.872 33.9705 150.075 33.2157 161.797L26.0381 273.264Z" fill="url(#paint6_linear_20_2)"/>
<path d="M65.8216 174.849L64.1947 201.601L59.4951 242.633L70.8829 253.117L65.8216 174.849Z" fill="#85E5FC"/>
<path d="M120.912 166.552L122.852 190.886L125.118 189.838L120.912 166.552Z" fill="#85E5FC"/>
<path d="M64.3779 199.538H30.9482L33.0886 241.448C33.7056 253.53 41.5189 264.059 52.9036 268.15L101.493 285.612L105.968 289.561C113.338 289.771 131.5 291.052 139.66 291.666C139.871 277.347 118.866 274.293 108.337 274.557L68.4588 248.529C65.9128 246.867 64.3779 244.032 64.3779 240.992V199.538Z" fill="#FFC7C7"/>
<circle cx="374.59" cy="445.783" r="9.36719" fill="url(#paint7_radial_20_2)"/>
<circle cx="410.429" cy="445.783" r="9.36719" fill="url(#paint8_radial_20_2)"/>
<circle cx="446.268" cy="445.783" r="9.36719" fill="url(#paint9_radial_20_2)"/>
<rect x="402.713" y="366.061" width="15.4326" height="68.2832" fill="url(#paint10_linear_20_2)"/>
<rect x="455.82" y="433.251" width="6.33106" height="90.5986" rx="2" transform="rotate(90 455.82 433.251)" fill="url(#paint11_linear_20_2)"/>
<path d="M396.339 334.8H424.519V363.113C424.519 365.322 422.728 367.113 420.519 367.113H400.339C398.13 367.113 396.339 365.322 396.339 363.113V334.8Z" fill="url(#paint12_linear_20_2)"/>
<rect x="351.447" y="329.575" width="117.432" height="6.70703" rx="2" fill="#F3F5FF"/>
<path d="M351.447 314.145H458.157C462.538 314.145 466.089 317.696 466.089 322.077V329.575H351.447V314.145Z" fill="#AEF6FF"/>
<path d="M279.354 441.27L281.559 429.517L304.821 427.558L302.617 449.351H281.559L279.354 441.27Z" fill="#FFC7C7"/>
<path d="M303.837 455.537V437.764C299.775 444.648 288.604 444.958 283.526 444.253L285.359 435.648H279.717C275.721 436.918 265.274 440.021 255.457 442.278C245.639 444.535 245.348 452.058 246.429 455.537H303.837Z" fill="#6F78C6"/>
<rect x="246" y="451.784" width="57.8369" height="3.75293" fill="#D3D6FE"/>
<path d="M314.658 441.27L316.862 429.517L340.124 427.558L337.921 449.351H316.862L314.658 441.27Z" fill="#FFC7C7"/>
<path d="M339.141 455.537V437.764C335.079 444.648 323.907 444.958 318.829 444.253L320.663 435.648H315.021C311.025 436.918 300.578 440.021 290.76 442.278C280.943 444.535 280.651 452.058 281.733 455.537H339.141Z" fill="#6F78C6"/>
<rect x="281.304" y="451.784" width="57.8369" height="3.75293" fill="#D3D6FE"/>
<path d="M449.076 102.483V138.091L435.014 146.71L420.953 142.174V129.529L413.496 129.037C406.267 128.561 400.596 122.65 400.42 115.408L399.406 73.6802L433.88 67.7832L456.333 76.4012L460.643 96.1331L449.076 102.483Z" fill="#FFC7C7"/>
<path d="M448.764 105.164C441.726 123.613 427.287 129.177 420.947 129.652C414.29 153.808 436.718 145.264 448.764 137.973V105.164Z" fill="#FFBABA"/>
<path d="M385.674 62.4488C380.315 69.4753 393.762 82.2476 401.156 87.7555C413.541 87.7555 418.622 81.6025 419.615 78.5261C420.508 85.3737 421.401 94.6031 426.611 89.9884C430.779 86.2966 435.791 80.8086 437.776 78.5261C438.222 80.1635 444.921 102.493 446.708 91.6259C448.494 80.759 454.597 79.4192 457.574 88.6486C459.956 96.0322 452.612 99.8629 448.643 100.855V119.91C466.506 116.188 464.422 79.7169 463.38 72.5716C462.338 65.4262 458.17 50.9865 438.818 43.9895C423.336 38.3918 418.077 47.6115 417.382 52.9211C416.042 49.795 405.771 40.7145 398.03 43.9895C391.837 46.6094 396.839 55.8986 400.114 60.2157C397.534 58.0324 391.033 55.4224 385.674 62.4488Z" fill="url(#paint13_linear_20_2)"/>
<path d="M358.627 213.162L369.96 182.33L387.407 185.037L385.418 213.162C374.896 227.788 371.105 236.517 361.243 239.653C339.221 227.605 329.277 217.142 312.187 197.464C303.357 194.848 298.778 188.962 297.143 179.151C295.835 171.302 301.177 168.904 304.011 168.686L312.187 179.151C312.187 171.302 316.33 173.046 318.401 174.899V188.962L358.627 213.162Z" fill="#FFC7C7"/>
<path d="M431.732 281.783L432.895 269.488L382.253 267.286L318.155 273.34C305.868 274.501 296.09 284.139 294.753 296.408L279.807 433.557H307.219L329.325 308.052H402.861C417.819 308.052 430.323 296.675 431.732 281.783Z" fill="url(#paint14_linear_20_2)"/>
<path d="M464.006 285.702V268.278L434.588 272.966L352.963 280.128C340.652 281.208 330.803 290.804 329.403 303.082L314.565 433.193H341.977L364.084 314.702H435.006C451.022 314.702 464.006 301.718 464.006 285.702Z" fill="url(#paint15_linear_20_2)"/>
<path d="M467.811 272.476C429.518 278.709 393.723 271.61 380.612 267.28L386.549 188.245L369.109 184.534L374.999 150.736C376.558 141.789 383.95 135.015 392.999 134.242L421.058 131.844C420.464 149.358 440.003 141.615 449.774 135.554L478.249 146.691C487.081 150.145 492.272 159.327 490.68 168.676L476.662 250.953C476.528 251.743 475.565 252.062 474.985 251.507L467.811 244.646V272.476Z" fill="url(#paint16_linear_20_2)"/>
<path d="M446.733 241.427V234.631C462.025 237.52 472.786 247.728 476.256 252.471C470.521 263.516 382.592 289.852 377.282 290.701C373.034 291.381 360.786 294.666 355.193 296.224C352.305 290.956 359.512 282.135 363.476 278.383H380.043L446.733 241.427Z" fill="#FFC7C7"/>
<path d="M450.379 186.933L441.188 244.411L446.811 241.425V235.454C446.639 231.328 448.946 201.404 450.379 186.933Z" fill="#FF4C78"/>
<path d="M388.933 165.795L382.984 188.065H387.408C387.236 183.938 387.5 180.266 388.933 165.795Z" fill="#FF4C78"/>
<rect x="148.646" y="39.9258" width="92.9893" height="64.6885" rx="8" fill="#23F1CC"/>
<path d="M162.106 119.944V100.921H190.09L165.386 121.482C164.083 122.566 162.106 121.639 162.106 119.944Z" fill="#23F1CC"/>
<rect x="226.969" y="59.8105" width="63.6547" height="4.9193" rx="2.45965" transform="rotate(180 226.969 59.8105)" fill="#4B5699" fill-opacity="0.25"/>
<rect x="226.969" y="74.7295" width="63.6547" height="4.9193" rx="2.45965" transform="rotate(180 226.969 74.7295)" fill="#4B5699" fill-opacity="0.25"/>
<rect x="226.969" y="89.6484" width="63.6547" height="4.9193" rx="2.45965" transform="rotate(180 226.969 89.6484)" fill="#4B5699" fill-opacity="0.25"/>
<rect width="92.9893" height="64.6885" rx="8" transform="matrix(-1 0 0 1 365.728 0.47168)" fill="#FFF274"/>
<path d="M352.268 80.4902V61.4668H324.284L348.988 82.0274C350.291 83.1118 352.268 82.1853 352.268 80.4902Z" fill="#FFF274"/>
<rect width="63.6547" height="4.9193" rx="2.45965" transform="matrix(1 9.01416e-08 8.4786e-08 -1 287.405 20.3564)" fill="#4B5699" fill-opacity="0.25"/>
<rect width="63.6547" height="4.9193" rx="2.45965" transform="matrix(1 9.01416e-08 8.4786e-08 -1 287.405 35.2754)" fill="#4B5699" fill-opacity="0.25"/>
<rect width="63.6547" height="4.9193" rx="2.45965" transform="matrix(1 9.01416e-08 8.4786e-08 -1 287.405 50.1943)" fill="#4B5699" fill-opacity="0.25"/>
<defs>
<radialGradient id="paint0_radial_20_2" cx="0" cy="0" r="1" gradientUnits="userSpaceOnUse" gradientTransform="translate(18.9414 446.17) rotate(90) scale(9.36719)">
<stop stop-color="#6C75BD"/>
<stop offset="1" stop-color="#3C4789"/>
</radialGradient>
<radialGradient id="paint1_radial_20_2" cx="0" cy="0" r="1" gradientUnits="userSpaceOnUse" gradientTransform="translate(54.7803 446.17) rotate(90) scale(9.36719)">
<stop stop-color="#6C75BD"/>
<stop offset="1" stop-color="#3C4789"/>
</radialGradient>
<radialGradient id="paint2_radial_20_2" cx="0" cy="0" r="1" gradientUnits="userSpaceOnUse" gradientTransform="translate(90.6191 446.17) rotate(90) scale(9.36719)">
<stop stop-color="#6C75BD"/>
<stop offset="1" stop-color="#3C4789"/>
</radialGradient>
<linearGradient id="paint3_linear_20_2" x1="152.575" y1="402.509" x2="160.266" y2="285.463" gradientUnits="userSpaceOnUse">
<stop stop-color="#545FA7"/>
<stop offset="1" stop-color="#495496"/>
</linearGradient>
<linearGradient id="paint4_linear_20_2" x1="156.012" y1="270.634" x2="28.8799" y2="412.171" gradientUnits="userSpaceOnUse">
<stop stop-color="#545FA7"/>
<stop offset="1" stop-color="#495496"/>
</linearGradient>
<linearGradient id="paint5_linear_20_2" x1="124.94" y1="42.6143" x2="57.9927" y2="126.149" gradientUnits="userSpaceOnUse">
<stop stop-color="#3E498B"/>
<stop offset="1" stop-color="#858CD2"/>
</linearGradient>
<linearGradient id="paint6_linear_20_2" x1="26.0381" y1="129.103" x2="138.953" y2="275.739" gradientUnits="userSpaceOnUse">
<stop stop-color="#B6F7FF"/>
<stop offset="1" stop-color="#84F0FF"/>
</linearGradient>
<radialGradient id="paint7_radial_20_2" cx="0" cy="0" r="1" gradientUnits="userSpaceOnUse" gradientTransform="translate(374.59 445.783) rotate(90) scale(9.36719)">
<stop stop-color="#6C75BD"/>
<stop offset="1" stop-color="#3C4789"/>
</radialGradient>
<radialGradient id="paint8_radial_20_2" cx="0" cy="0" r="1" gradientUnits="userSpaceOnUse" gradientTransform="translate(410.429 445.783) rotate(90) scale(9.36719)">
<stop stop-color="#6C75BD"/>
<stop offset="1" stop-color="#3C4789"/>
</radialGradient>
<radialGradient id="paint9_radial_20_2" cx="0" cy="0" r="1" gradientUnits="userSpaceOnUse" gradientTransform="translate(446.268 445.783) rotate(90) scale(9.36719)">
<stop stop-color="#6C75BD"/>
<stop offset="1" stop-color="#3C4789"/>
</radialGradient>
<linearGradient id="paint10_linear_20_2" x1="410.429" y1="366.061" x2="410.429" y2="434.344" gradientUnits="userSpaceOnUse">
<stop stop-color="#3C4789"/>
<stop offset="0.488024" stop-color="#6C75BD"/>
<stop offset="1" stop-color="#3C4789"/>
</linearGradient>
<linearGradient id="paint11_linear_20_2" x1="462.151" y1="478.55" x2="455.82" y2="478.55" gradientUnits="userSpaceOnUse">
<stop stop-color="#3C4789"/>
<stop offset="0.505208" stop-color="#6C75BD"/>
<stop offset="1" stop-color="#4B5599"/>
</linearGradient>
<linearGradient id="paint12_linear_20_2" x1="410.429" y1="334.8" x2="410.429" y2="367.113" gradientUnits="userSpaceOnUse">
<stop stop-color="#3C4789"/>
<stop offset="1" stop-color="#6C75BD"/>
</linearGradient>
<linearGradient id="paint13_linear_20_2" x1="384.444" y1="42.2471" x2="464.04" y2="119.909" gradientUnits="userSpaceOnUse">
<stop stop-color="#3E498B"/>
<stop offset="1" stop-color="#858CD2"/>
</linearGradient>
<linearGradient id="paint14_linear_20_2" x1="279.807" y1="433.557" x2="354.72" y2="330.707" gradientUnits="userSpaceOnUse">
<stop stop-color="#545FA7"/>
<stop offset="1" stop-color="#495496"/>
</linearGradient>
<linearGradient id="paint15_linear_20_2" x1="464.006" y1="268.278" x2="314.565" y2="433.193" gradientUnits="userSpaceOnUse">
<stop stop-color="#545FA7"/>
<stop offset="1" stop-color="#495496"/>
</linearGradient>
<linearGradient id="paint16_linear_20_2" x1="431.262" y1="274.93" x2="431.262" y2="131.844" gradientUnits="userSpaceOnUse">
<stop stop-color="#FF4A75"/>
<stop offset="1" stop-color="#FF97DD"/>
</linearGradient>
</defs>
</svg>
